# xmcd CD database file
#
# Track frame offsets:
#	150
#	19478
#	38070
#	59791
#	77388
#	96402
#	116818
#	136580
#	157554
#	176617
#	191486
#	211508
#
# Disc length: 3096 seconds
#
# Revision: 0
# Processed by: cddbd v1.5.1PL0 Copyright (c) Steve Scherf et al.
# Submitted via: CDex 1.51
#
DISCID=940c160c
DTITLE=Various Artist - El Doble Tiro Merenguísimo
DYEAR=1900
DGENRE=Merengue
TTITLE0=Los Hermanos Rosario - La Dueña Del Swing
TTITLE1=Los Hermanos Rosario - Rompecintura
TTITLE2=Toño Rosario - Quiero Volver A Empezar
TTITLE3=Toño Rosario - Seguiré
TTITLE4=Olga Tañón - El Frío De Tu Adiós
TTITLE5=Olga Tañón - Así Es El Amor
TTITLE6=Oro Sólido - La Tanga 
TTITLE7=Oro Sólido - La Leche
TTITLE8=Banda Chula - Ay Que Olla
TTITLE9=Banda Chula - Merengue Con Pique
TTITLE10=Banda Gorda - El Rey Del Mambo
TTITLE11=Banda Gorda -  Pa' Los Que Sufren
EXTD=
EXTT0=
EXTT1=
EXTT2=
EXTT3=
EXTT4=
EXTT5=
EXTT6=
EXTT7=
EXTT8=
EXTT9=
EXTT10=
EXTT11=
PLAYORDER=
